{
	"asset":{
		"generator":"Khronos glTF Blender I/O v4.1.62",
		"version":"2.0"
	},
	"scene":0,
	"scenes":[
		{
			"name":"Scene",
			"nodes":[
				7,
				8,
				9,
				10,
				11,
				12,
				13,
				14,
				15,
				16,
				17,
				18,
				19
			]
		}
	],
	"nodes":[
		{
			"mesh":0,
			"name":"defaultMaterial"
		},
		{
			"children":[
				0
			],
			"name":"BRAIN"
		},
		{
			"mesh":1,
			"name":"defaultMaterial.002"
		},
		{
			"children":[
				2
			],
			"name":"BRAIN_LOW"
		},
		{
			"mesh":2,
			"name":"defaultMaterial.001"
		},
		{
			"children":[
				4
			],
			"name":"cerebellum"
		},
		{
			"children":[
				1,
				3,
				5
			],
			"name":"Collada visual scene group",
			"rotation":[
				0.70710688829422,
				0,
				0,
				0.7071066498756409
			]
		},
		{
			"children":[
				6
			],
			"name":"Sketchfab_model",
			"rotation":[
				-0.70710688829422,
				0,
				0,
				0.7071066498756409
			],
			"translation":[
				0,
				3.0983214378356934,
				0
			]
		},
		{
			"mesh":3,
			"name":"Text",
			"rotation":[
				0.7071068286895752,
				0,
				0,
				0.7071068286895752
			],
			"scale":[
				0.6036611795425415,
				0.6036611795425415,
				0.6036611795425415
			],
			"translation":[
				1.2277040481567383,
				0.5110702514648438,
				-0.8518908023834229
			]
		},
		{
			"mesh":4,
			"name":"Text.001",
			"rotation":[
				0.7071068286895752,
				0,
				0,
				0.7071068286895752
			],
			"scale":[
				0.6036611795425415,
				0.6036611795425415,
				0.6036611795425415
			],
			"translation":[
				-0.9022198915481567,
				5.611913204193115,
				2.072824478149414
			]
		},
		{
			"mesh":5,
			"name":"Text.002",
			"rotation":[
				0.7071068286895752,
				0,
				0,
				0.7071068286895752
			],
			"scale":[
				0.6036611795425415,
				0.6036611795425415,
				0.6036611795425415
			],
			"translation":[
				3.6514358520507812,
				2.553615093231201,
				0.21704578399658203
			]
		},
		{
			"mesh":6,
			"name":"Text.003",
			"rotation":[
				0.7071068286895752,
				0,
				0,
				0.7071068286895752
			],
			"scale":[
				0.6036611795425415,
				0.6036611795425415,
				0.6036611795425415
			],
			"translation":[
				2.262871742248535,
				1.3820419311523438,
				-1.7818114757537842
			]
		},
		{
			"mesh":7,
			"name":"Text.004",
			"rotation":[
				0.7071068286895752,
				0,
				0,
				0.7071068286895752
			],
			"scale":[
				0.6036611795425415,
				0.6036611795425415,
				0.6036611795425415
			],
			"translation":[
				2.6846084594726562,
				3.0807430744171143,
				-1.8089611530303955
			]
		},
		{
			"mesh":8,
			"name":"Text.005",
			"rotation":[
				0.7071068286895752,
				0,
				0,
				0.7071068286895752
			],
			"scale":[
				0.6036611795425415,
				0.6036611795425415,
				0.6036611795425415
			],
			"translation":[
				-0.8154278993606567,
				6.290050506591797,
				0.38150548934936523
			]
		},
		{
			"mesh":9,
			"name":"Plane",
			"rotation":[
				0.7071068286895752,
				0,
				0,
				0.7071067690849304
			],
			"scale":[
				0.11934405565261841,
				0.11934405565261841,
				0.11934405565261841
			],
			"translation":[
				0.5625581741333008,
				5.750810623168945,
				0.3228585720062256
			]
		},
		{
			"mesh":10,
			"name":"Plane.001",
			"rotation":[
				0.7071068286895752,
				0,
				0,
				0.7071067690849304
			],
			"scale":[
				0.11934405565261841,
				0.11934405565261841,
				0.11934405565261841
			],
			"translation":[
				0.5625581741333008,
				5.111492156982422,
				2.0862650871276855
			]
		},
		{
			"mesh":11,
			"name":"Plane.002",
			"rotation":[
				0.5,
				-0.5,
				-0.5,
				0.5000000596046448
			],
			"scale":[
				0.10599589347839355,
				0.10599589347839355,
				0.10599589347839355
			],
			"translation":[
				0.8702870011329651,
				0.788995087146759,
				-0.8499337434768677
			]
		},
		{
			"mesh":12,
			"name":"Plane.003",
			"rotation":[
				0.5,
				-0.5,
				-0.5,
				0.5000000596046448
			],
			"scale":[
				0.10599589347839355,
				0.10599589347839355,
				0.10599589347839355
			],
			"translation":[
				2.2987048625946045,
				3.232987880706787,
				-1.8351763486862183
			]
		},
		{
			"mesh":13,
			"name":"Plane.004",
			"rotation":[
				0.5,
				-0.5,
				-0.5,
				0.5000000596046448
			],
			"scale":[
				0.10599589347839355,
				0.10599589347839355,
				0.10599589347839355
			],
			"translation":[
				1.846597671508789,
				1.4993600845336914,
				-1.8351763486862183
			]
		},
		{
			"mesh":14,
			"name":"Plane.005",
			"rotation":[
				0.5,
				-0.5,
				-0.5,
				0.5000000596046448
			],
			"scale":[
				0.10599589347839355,
				0.10599589347839355,
				0.10599589347839355
			],
			"translation":[
				2.988640785217285,
				2.6633241176605225,
				0.23653018474578857
			]
		}
	],
	"materials":[
		{
			"doubleSided":true,
			"name":"BRAIN_STEM_1002",
			"normalTexture":{
				"index":0
			},
			"occlusionTexture":{
				"index":1
			},
			"pbrMetallicRoughness":{
				"baseColorTexture":{
					"index":2
				},
				"metallicRoughnessTexture":{
					"index":1
				}
			}
		},
		{
			"doubleSided":true,
			"name":"BRAIN_LOW_1001",
			"normalTexture":{
				"index":3
			},
			"occlusionTexture":{
				"index":4
			},
			"pbrMetallicRoughness":{
				"baseColorTexture":{
					"index":5
				},
				"metallicRoughnessTexture":{
					"index":4
				}
			}
		},
		{
			"doubleSided":true,
			"name":"cerebellum_1003",
			"normalTexture":{
				"index":6
			},
			"occlusionTexture":{
				"index":7
			},
			"pbrMetallicRoughness":{
				"baseColorTexture":{
					"index":8
				},
				"metallicRoughnessTexture":{
					"index":7
				}
			}
		},
		{
			"doubleSided":true,
			"name":"Material",
			"pbrMetallicRoughness":{
				"baseColorFactor":[
					0.800000011920929,
					0.800000011920929,
					0.800000011920929,
					1
				],
				"metallicFactor":0,
				"roughnessFactor":0.5
			}
		},
		{
			"doubleSided":true,
			"emissiveFactor":[
				0.9002599120140076,
				0.13966546952724457,
				1
			],
			"name":"Material.002",
			"pbrMetallicRoughness":{
				"baseColorFactor":[
					0,
					0,
					0,
					1
				]
			}
		},
		{
			"doubleSided":true,
			"emissiveFactor":[
				0.008657582104206085,
				1,
				0
			],
			"name":"Material.005",
			"pbrMetallicRoughness":{
				"baseColorFactor":[
					0,
					0,
					0,
					1
				]
			}
		},
		{
			"doubleSided":true,
			"emissiveFactor":[
				0.02881813980638981,
				0.18002957105636597,
				1
			],
			"name":"Material.003",
			"pbrMetallicRoughness":{
				"baseColorFactor":[
					0,
					0,
					0,
					1
				]
			}
		},
		{
			"doubleSided":true,
			"emissiveFactor":[
				0.745676577091217,
				1,
				0
			],
			"name":"Material.001",
			"pbrMetallicRoughness":{
				"baseColorFactor":[
					0,
					0,
					0,
					1
				]
			}
		},
		{
			"doubleSided":true,
			"name":"Material.006",
			"pbrMetallicRoughness":{
				"baseColorFactor":[
					0,
					0,
					0,
					1
				],
				"metallicFactor":0,
				"roughnessFactor":0.5
			}
		}
	],
	"meshes":[
		{
			"name":"defaultMaterial",
			"primitives":[
				{
					"attributes":{
						"POSITION":0,
						"NORMAL":1,
						"TEXCOORD_0":2
					},
					"indices":3,
					"material":0
				}
			]
		},
		{
			"name":"defaultMaterial.002",
			"primitives":[
				{
					"attributes":{
						"POSITION":4,
						"NORMAL":5,
						"TEXCOORD_0":6
					},
					"indices":7,
					"material":1
				}
			]
		},
		{
			"name":"defaultMaterial.001",
			"primitives":[
				{
					"attributes":{
						"POSITION":8,
						"NORMAL":9,
						"TEXCOORD_0":10
					},
					"indices":11,
					"material":2
				}
			]
		},
		{
			"name":"Brain Stem",
			"primitives":[
				{
					"attributes":{
						"POSITION":12,
						"NORMAL":13,
						"TEXCOORD_0":14
					},
					"indices":15,
					"material":3
				}
			]
		},
		{
			"name":"Brain Stem.001",
			"primitives":[
				{
					"attributes":{
						"POSITION":16,
						"NORMAL":17,
						"TEXCOORD_0":18
					},
					"indices":19,
					"material":4
				}
			]
		},
		{
			"name":"Brain Stem.002",
			"primitives":[
				{
					"attributes":{
						"POSITION":20,
						"NORMAL":21,
						"TEXCOORD_0":22
					},
					"indices":23,
					"material":5
				}
			]
		},
		{
			"name":"Brain Stem.003",
			"primitives":[
				{
					"attributes":{
						"POSITION":24,
						"NORMAL":25,
						"TEXCOORD_0":26
					},
					"indices":27,
					"material":3
				}
			]
		},
		{
			"name":"Brain Stem.004",
			"primitives":[
				{
					"attributes":{
						"POSITION":28,
						"NORMAL":29,
						"TEXCOORD_0":30
					},
					"indices":31,
					"material":6
				}
			]
		},
		{
			"name":"Brain Stem.005",
			"primitives":[
				{
					"attributes":{
						"POSITION":32,
						"NORMAL":33,
						"TEXCOORD_0":34
					},
					"indices":35,
					"material":7
				}
			]
		},
		{
			"name":"Plane",
			"primitives":[
				{
					"attributes":{
						"POSITION":36,
						"NORMAL":37,
						"TEXCOORD_0":38
					},
					"indices":39,
					"material":8
				}
			]
		},
		{
			"name":"Plane.001",
			"primitives":[
				{
					"attributes":{
						"POSITION":40,
						"NORMAL":41,
						"TEXCOORD_0":42
					},
					"indices":39,
					"material":8
				}
			]
		},
		{
			"name":"Plane.002",
			"primitives":[
				{
					"attributes":{
						"POSITION":43,
						"NORMAL":44,
						"TEXCOORD_0":45
					},
					"indices":39,
					"material":8
				}
			]
		},
		{
			"name":"Plane.003",
			"primitives":[
				{
					"attributes":{
						"POSITION":46,
						"NORMAL":47,
						"TEXCOORD_0":48
					},
					"indices":39,
					"material":8
				}
			]
		},
		{
			"name":"Plane.004",
			"primitives":[
				{
					"attributes":{
						"POSITION":49,
						"NORMAL":50,
						"TEXCOORD_0":51
					},
					"indices":39,
					"material":8
				}
			]
		},
		{
			"name":"Plane.005",
			"primitives":[
				{
					"attributes":{
						"POSITION":52,
						"NORMAL":53,
						"TEXCOORD_0":54
					},
					"indices":39,
					"material":8
				}
			]
		}
	],
	"textures":[
		{
			"sampler":0,
			"source":0
		},
		{
			"sampler":0,
			"source":1
		},
		{
			"sampler":0,
			"source":2
		},
		{
			"sampler":0,
			"source":3
		},
		{
			"sampler":0,
			"source":4
		},
		{
			"sampler":0,
			"source":5
		},
		{
			"sampler":0,
			"source":6
		},
		{
			"sampler":0,
			"source":7
		},
		{
			"sampler":0,
			"source":8
		}
	],
	"images":[
		{
			"mimeType":"image/png",
			"name":"Image_8",
			"uri":"Image_8.png"
		},
		{
			"mimeType":"image/png",
			"name":"Image_7",
			"uri":"Image_7.png"
		},
		{
			"mimeType":"image/jpeg",
			"name":"Image_6",
			"uri":"Image_6.jpg"
		},
		{
			"mimeType":"image/png",
			"name":"Image_2",
			"uri":"Image_2.png"
		},
		{
			"mimeType":"image/png",
			"name":"Image_1",
			"uri":"Image_1.png"
		},
		{
			"mimeType":"image/jpeg",
			"name":"Image_0",
			"uri":"Image_0.jpg"
		},
		{
			"mimeType":"image/png",
			"name":"Image_5",
			"uri":"Image_5.png"
		},
		{
			"mimeType":"image/png",
			"name":"Image_4",
			"uri":"Image_4.png"
		},
		{
			"mimeType":"image/jpeg",
			"name":"Image_3",
			"uri":"Image_3.jpg"
		}
	],
	"accessors":[
		{
			"bufferView":0,
			"componentType":5126,
			"count":2531,
			"max":[
				0.5344449877738953,
				-0.8968729972839355,
				0.5087419748306274
			],
			"min":[
				-0.5169259905815125,
				-2.9866890907287598,
				-1.6717859506607056
			],
			"type":"VEC3"
		},
		{
			"bufferView":1,
			"componentType":5126,
			"count":2531,
			"type":"VEC3"
		},
		{
			"bufferView":2,
			"componentType":5126,
			"count":2531,
			"type":"VEC2"
		},
		{
			"bufferView":3,
			"componentType":5123,
			"count":14508,
			"type":"SCALAR"
		},
		{
			"bufferView":4,
			"componentType":5126,
			"count":28512,
			"max":[
				2.1591479778289795,
				2.1036388874053955,
				2.7294249534606934
			],
			"min":[
				-2.237696886062622,
				-1.513273000717163,
				-2.817081928253174
			],
			"type":"VEC3"
		},
		{
			"bufferView":5,
			"componentType":5126,
			"count":28512,
			"type":"VEC3"
		},
		{
			"bufferView":6,
			"componentType":5126,
			"count":28512,
			"type":"VEC2"
		},
		{
			"bufferView":7,
			"componentType":5123,
			"count":163494,
			"type":"SCALAR"
		},
		{
			"bufferView":8,
			"componentType":5126,
			"count":7973,
			"max":[
				1.3459659814834595,
				-0.11502700299024582,
				-0.5029069781303406
			],
			"min":[
				-1.3304280042648315,
				-1.7474210262298584,
				-2.2435379028320312
			],
			"type":"VEC3"
		},
		{
			"bufferView":9,
			"componentType":5126,
			"count":7973,
			"type":"VEC3"
		},
		{
			"bufferView":10,
			"componentType":5126,
			"count":7973,
			"type":"VEC2"
		},
		{
			"bufferView":11,
			"componentType":5123,
			"count":45768,
			"type":"SCALAR"
		},
		{
			"bufferView":12,
			"componentType":5126,
			"count":830,
			"max":[
				4.365000247955322,
				0,
				0.009000000543892384
			],
			"min":[
				0.07500000298023224,
				0,
				-0.6910000443458557
			],
			"type":"VEC3"
		},
		{
			"bufferView":13,
			"componentType":5126,
			"count":830,
			"type":"VEC3"
		},
		{
			"bufferView":14,
			"componentType":5126,
			"count":830,
			"type":"VEC2"
		},
		{
			"bufferView":15,
			"componentType":5123,
			"count":2454,
			"type":"SCALAR"
		},
		{
			"bufferView":16,
			"componentType":5126,
			"count":755,
			"max":[
				5.16200065612793,
				0,
				0.009000000543892384
			],
			"min":[
				0.07600000500679016,
				0,
				-0.6820000410079956
			],
			"type":"VEC3"
		},
		{
			"bufferView":17,
			"componentType":5126,
			"count":755,
			"type":"VEC3"
		},
		{
			"bufferView":18,
			"componentType":5126,
			"count":755,
			"type":"VEC2"
		},
		{
			"bufferView":19,
			"componentType":5123,
			"count":2229,
			"type":"SCALAR"
		},
		{
			"bufferView":20,
			"componentType":5126,
			"count":922,
			"max":[
				6.214000701904297,
				0,
				0.23000000417232513
			],
			"min":[
				0.017000000923871994,
				0,
				-0.6820000410079956
			],
			"type":"VEC3"
		},
		{
			"bufferView":21,
			"componentType":5126,
			"count":922,
			"type":"VEC3"
		},
		{
			"bufferView":22,
			"componentType":5126,
			"count":922,
			"type":"VEC2"
		},
		{
			"bufferView":23,
			"componentType":5123,
			"count":2736,
			"type":"SCALAR"
		},
		{
			"bufferView":24,
			"componentType":5126,
			"count":721,
			"max":[
				4.691000461578369,
				0,
				0.009000000543892384
			],
			"min":[
				0.04800000041723251,
				0,
				-0.6910000443458557
			],
			"type":"VEC3"
		},
		{
			"bufferView":25,
			"componentType":5126,
			"count":721,
			"type":"VEC3"
		},
		{
			"bufferView":26,
			"componentType":5126,
			"count":721,
			"type":"VEC2"
		},
		{
			"bufferView":27,
			"componentType":5123,
			"count":2127,
			"type":"SCALAR"
		},
		{
			"bufferView":28,
			"componentType":5126,
			"count":1011,
			"max":[
				5.882000923156738,
				0,
				0.23000000417232513
			],
			"min":[
				0.04500000178813934,
				0,
				-0.6910000443458557
			],
			"type":"VEC3"
		},
		{
			"bufferView":29,
			"componentType":5126,
			"count":1011,
			"type":"VEC3"
		},
		{
			"bufferView":30,
			"componentType":5126,
			"count":1011,
			"type":"VEC2"
		},
		{
			"bufferView":31,
			"componentType":5123,
			"count":2979,
			"type":"SCALAR"
		},
		{
			"bufferView":32,
			"componentType":5126,
			"count":973,
			"max":[
				5.276000499725342,
				0,
				0.009000000543892384
			],
			"min":[
				0.07000000029802322,
				0,
				-0.6820000410079956
			],
			"type":"VEC3"
		},
		{
			"bufferView":33,
			"componentType":5126,
			"count":973,
			"type":"VEC3"
		},
		{
			"bufferView":34,
			"componentType":5126,
			"count":973,
			"type":"VEC2"
		},
		{
			"bufferView":35,
			"componentType":5123,
			"count":2883,
			"type":"SCALAR"
		},
		{
			"bufferView":36,
			"componentType":5126,
			"count":4,
			"max":[
				-0.26577281951904297,
				1.7222103565472935e-07,
				4.939957618713379
			],
			"min":[
				-1,
				-1.1491694351661863e-07,
				-3.628993272781372
			],
			"type":"VEC3"
		},
		{
			"bufferView":37,
			"componentType":5126,
			"count":4,
			"type":"VEC3"
		},
		{
			"bufferView":38,
			"componentType":5126,
			"count":4,
			"type":"VEC2"
		},
		{
			"bufferView":39,
			"componentType":5123,
			"count":6,
			"type":"SCALAR"
		},
		{
			"bufferView":40,
			"componentType":5126,
			"count":4,
			"max":[
				-0.26577281951904297,
				1.691855118224339e-07,
				4.870513439178467
			],
			"min":[
				-1,
				-1.1491694351661863e-07,
				-3.628993272781372
			],
			"type":"VEC3"
		},
		{
			"bufferView":41,
			"componentType":5126,
			"count":4,
			"type":"VEC3"
		},
		{
			"bufferView":42,
			"componentType":5126,
			"count":4,
			"type":"VEC2"
		},
		{
			"bufferView":43,
			"componentType":5126,
			"count":4,
			"max":[
				-0.26577281951904297,
				2.2603251181863016e-07,
				6.171020984649658
			],
			"min":[
				-1,
				-1.1491694351661863e-07,
				-3.628993272781372
			],
			"type":"VEC3"
		},
		{
			"bufferView":44,
			"componentType":5126,
			"count":4,
			"type":"VEC3"
		},
		{
			"bufferView":45,
			"componentType":5126,
			"count":4,
			"type":"VEC2"
		},
		{
			"bufferView":46,
			"componentType":5126,
			"count":4,
			"max":[
				-0.26577281951904297,
				2.2603251181863016e-07,
				6.171020984649658
			],
			"min":[
				-1,
				-1.1491694351661863e-07,
				-3.628993272781372
			],
			"type":"VEC3"
		},
		{
			"bufferView":47,
			"componentType":5126,
			"count":4,
			"type":"VEC3"
		},
		{
			"bufferView":48,
			"componentType":5126,
			"count":4,
			"type":"VEC2"
		},
		{
			"bufferView":49,
			"componentType":5126,
			"count":4,
			"max":[
				-0.26577281951904297,
				2.2603251181863016e-07,
				6.171020984649658
			],
			"min":[
				-1,
				-1.1491694351661863e-07,
				-3.628993272781372
			],
			"type":"VEC3"
		},
		{
			"bufferView":50,
			"componentType":5126,
			"count":4,
			"type":"VEC3"
		},
		{
			"bufferView":51,
			"componentType":5126,
			"count":4,
			"type":"VEC2"
		},
		{
			"bufferView":52,
			"componentType":5126,
			"count":4,
			"max":[
				-0.2657725512981415,
				3.126177148260467e-07,
				8.151859283447266
			],
			"min":[
				-1.0000001192092896,
				-2.6846669243241195e-07,
				-7.141801834106445
			],
			"type":"VEC3"
		},
		{
			"bufferView":53,
			"componentType":5126,
			"count":4,
			"type":"VEC3"
		},
		{
			"bufferView":54,
			"componentType":5126,
			"count":4,
			"type":"VEC2"
		}
	],
	"bufferViews":[
		{
			"buffer":0,
			"byteLength":30372,
			"byteOffset":0,
			"target":34962
		},
		{
			"buffer":0,
			"byteLength":30372,
			"byteOffset":30372,
			"target":34962
		},
		{
			"buffer":0,
			"byteLength":20248,
			"byteOffset":60744,
			"target":34962
		},
		{
			"buffer":0,
			"byteLength":29016,
			"byteOffset":80992,
			"target":34963
		},
		{
			"buffer":0,
			"byteLength":342144,
			"byteOffset":110008,
			"target":34962
		},
		{
			"buffer":0,
			"byteLength":342144,
			"byteOffset":452152,
			"target":34962
		},
		{
			"buffer":0,
			"byteLength":228096,
			"byteOffset":794296,
			"target":34962
		},
		{
			"buffer":0,
			"byteLength":326988,
			"byteOffset":1022392,
			"target":34963
		},
		{
			"buffer":0,
			"byteLength":95676,
			"byteOffset":1349380,
			"target":34962
		},
		{
			"buffer":0,
			"byteLength":95676,
			"byteOffset":1445056,
			"target":34962
		},
		{
			"buffer":0,
			"byteLength":63784,
			"byteOffset":1540732,
			"target":34962
		},
		{
			"buffer":0,
			"byteLength":91536,
			"byteOffset":1604516,
			"target":34963
		},
		{
			"buffer":0,
			"byteLength":9960,
			"byteOffset":1696052,
			"target":34962
		},
		{
			"buffer":0,
			"byteLength":9960,
			"byteOffset":1706012,
			"target":34962
		},
		{
			"buffer":0,
			"byteLength":6640,
			"byteOffset":1715972,
			"target":34962
		},
		{
			"buffer":0,
			"byteLength":4908,
			"byteOffset":1722612,
			"target":34963
		},
		{
			"buffer":0,
			"byteLength":9060,
			"byteOffset":1727520,
			"target":34962
		},
		{
			"buffer":0,
			"byteLength":9060,
			"byteOffset":1736580,
			"target":34962
		},
		{
			"buffer":0,
			"byteLength":6040,
			"byteOffset":1745640,
			"target":34962
		},
		{
			"buffer":0,
			"byteLength":4458,
			"byteOffset":1751680,
			"target":34963
		},
		{
			"buffer":0,
			"byteLength":11064,
			"byteOffset":1756140,
			"target":34962
		},
		{
			"buffer":0,
			"byteLength":11064,
			"byteOffset":1767204,
			"target":34962
		},
		{
			"buffer":0,
			"byteLength":7376,
			"byteOffset":1778268,
			"target":34962
		},
		{
			"buffer":0,
			"byteLength":5472,
			"byteOffset":1785644,
			"target":34963
		},
		{
			"buffer":0,
			"byteLength":8652,
			"byteOffset":1791116,
			"target":34962
		},
		{
			"buffer":0,
			"byteLength":8652,
			"byteOffset":1799768,
			"target":34962
		},
		{
			"buffer":0,
			"byteLength":5768,
			"byteOffset":1808420,
			"target":34962
		},
		{
			"buffer":0,
			"byteLength":4254,
			"byteOffset":1814188,
			"target":34963
		},
		{
			"buffer":0,
			"byteLength":12132,
			"byteOffset":1818444,
			"target":34962
		},
		{
			"buffer":0,
			"byteLength":12132,
			"byteOffset":1830576,
			"target":34962
		},
		{
			"buffer":0,
			"byteLength":8088,
			"byteOffset":1842708,
			"target":34962
		},
		{
			"buffer":0,
			"byteLength":5958,
			"byteOffset":1850796,
			"target":34963
		},
		{
			"buffer":0,
			"byteLength":11676,
			"byteOffset":1856756,
			"target":34962
		},
		{
			"buffer":0,
			"byteLength":11676,
			"byteOffset":1868432,
			"target":34962
		},
		{
			"buffer":0,
			"byteLength":7784,
			"byteOffset":1880108,
			"target":34962
		},
		{
			"buffer":0,
			"byteLength":5766,
			"byteOffset":1887892,
			"target":34963
		},
		{
			"buffer":0,
			"byteLength":48,
			"byteOffset":1893660,
			"target":34962
		},
		{
			"buffer":0,
			"byteLength":48,
			"byteOffset":1893708,
			"target":34962
		},
		{
			"buffer":0,
			"byteLength":32,
			"byteOffset":1893756,
			"target":34962
		},
		{
			"buffer":0,
			"byteLength":12,
			"byteOffset":1893788,
			"target":34963
		},
		{
			"buffer":0,
			"byteLength":48,
			"byteOffset":1893800,
			"target":34962
		},
		{
			"buffer":0,
			"byteLength":48,
			"byteOffset":1893848,
			"target":34962
		},
		{
			"buffer":0,
			"byteLength":32,
			"byteOffset":1893896,
			"target":34962
		},
		{
			"buffer":0,
			"byteLength":48,
			"byteOffset":1893928,
			"target":34962
		},
		{
			"buffer":0,
			"byteLength":48,
			"byteOffset":1893976,
			"target":34962
		},
		{
			"buffer":0,
			"byteLength":32,
			"byteOffset":1894024,
			"target":34962
		},
		{
			"buffer":0,
			"byteLength":48,
			"byteOffset":1894056,
			"target":34962
		},
		{
			"buffer":0,
			"byteLength":48,
			"byteOffset":1894104,
			"target":34962
		},
		{
			"buffer":0,
			"byteLength":32,
			"byteOffset":1894152,
			"target":34962
		},
		{
			"buffer":0,
			"byteLength":48,
			"byteOffset":1894184,
			"target":34962
		},
		{
			"buffer":0,
			"byteLength":48,
			"byteOffset":1894232,
			"target":34962
		},
		{
			"buffer":0,
			"byteLength":32,
			"byteOffset":1894280,
			"target":34962
		},
		{
			"buffer":0,
			"byteLength":48,
			"byteOffset":1894312,
			"target":34962
		},
		{
			"buffer":0,
			"byteLength":48,
			"byteOffset":1894360,
			"target":34962
		},
		{
			"buffer":0,
			"byteLength":32,
			"byteOffset":1894408,
			"target":34962
		}
	],
	"samplers":[
		{
			"magFilter":9729,
			"minFilter":9987
		}
	],
	"buffers":[
		{
			"byteLength":1894440,
			"uri":"Brain.bin"
		}
	]
}
